<?xml version="1.0" standalone="no"?>
<!DOCTYPE svg PUBLIC "-//W3C//DTD SVG 20010904//EN"
 "http://www.w3.org/TR/2001/REC-SVG-20010904/DTD/svg10.dtd">
<svg version="1.0" xmlns="http://www.w3.org/2000/svg"
 width="300.000000pt" height="300.000000pt" viewBox="0 0 300.000000 300.000000"
 preserveAspectRatio="xMidYMid meet">
<metadata>
Created by potrace 1.10, written by Peter Selinger 2001-2011
</metadata>
<g transform="translate(0.000000,300.000000) scale(0.100000,-0.100000)"
fill="#000000" stroke="none">
<path d="M1638 2218 c-24 -24 -53 -55 -65 -70 -31 -37 -73 -37 -108 -1 -14 15
-25 31 -25 35 0 14 -91 70 -106 64 -23 -9 -17 -20 22 -41 43 -23 85 -71 78
-89 -3 -7 -20 -22 -38 -31 -37 -20 -66 -62 -66 -94 0 -12 7 -37 14 -56 14 -33
14 -37 -7 -60 l-22 -26 -43 40 c-40 37 -42 41 -36 80 12 73 -13 110 -87 131
-41 12 -27 -14 22 -42 32 -18 38 -25 32 -42 -13 -35 -9 -146 6 -155 25 -16 -9
-17 -83 -5 -98 17 -277 34 -352 34 -155 0 -288 -53 -312 -125 -12 -35 -11 -43
13 -91 41 -84 137 -157 258 -198 12 -4 17 -16 17 -40 0 -101 155 -150 279 -87
l41 21 0 -22 c-1 -33 -37 -108 -68 -141 -26 -28 -27 -29 -8 -43 22 -16 36 -18
36 -6 0 4 25 47 55 95 31 48 60 99 65 112 9 24 40 35 40 14 0 -5 -4 -8 -9 -5
-24 15 -52 -175 -39 -265 7 -56 5 -79 -12 -144 -12 -43 -25 -86 -30 -96 -13
-24 -13 -26 11 -32 11 -3 22 0 23 6 2 7 13 44 24 82 12 39 28 122 37 185 20
145 34 202 49 197 6 -2 10 -12 8 -22 -6 -34 30 -179 58 -235 55 -110 138 -169
236 -170 155 0 261 140 280 371 12 136 35 102 80 -115 29 -142 64 -269 77
-283 7 -6 37 9 37 19 0 5 -6 21 -14 36 -38 74 -49 127 -47 232 2 108 -15 203
-44 247 -9 14 -11 24 -5 28 6 4 18 -8 28 -25 9 -18 43 -71 74 -118 32 -47 59
-91 61 -97 2 -6 13 -2 25 9 l21 18 -40 48 c-35 42 -66 116 -54 128 2 2 25 -3
51 -12 137 -46 264 9 264 114 0 20 6 33 18 37 137 46 262 173 262 266 0 36
-53 90 -110 112 -98 38 -317 30 -559 -21 -63 -13 -117 -22 -119 -20 -2 3 2 14
8 26 8 15 10 47 6 94 -7 76 -4 86 32 105 23 12 31 41 11 41 -23 0 -69 -35 -80
-61 -6 -15 -8 -41 -4 -58 9 -42 -10 -91 -45 -119 l-29 -23 -17 26 c-14 22 -15
32 -5 64 6 21 11 48 11 59 0 27 -42 76 -80 92 -44 18 -38 42 25 97 30 26 55
51 55 56 0 21 -45 2 -82 -35z m-13 -136 c16 -11 17 -13 2 -8 -11 3 -15 2 -12
-4 3 -6 14 -10 23 -10 48 -1 66 -77 28 -119 -13 -15 -14 -20 -4 -24 8 -3 8 -6
2 -6 -7 -1 -19 11 -29 25 -15 23 -22 26 -53 20 -27 -4 -33 -3 -22 5 11 7 4 9
-25 5 -84 -11 -115 -18 -109 -27 5 -8 -10 -13 -29 -10 -5 1 -6 -3 -3 -8 4 -5
3 -12 -2 -15 -8 -5 -22 28 -37 84 -5 19 -4 22 4 10 9 -13 11 -12 11 4 0 10 8
25 18 33 10 9 11 12 2 7 -11 -5 -12 -4 -4 5 13 14 47 4 37 -12 -4 -6 -1 -7 6
-2 9 5 10 10 2 18 -13 13 -15 30 -2 23 5 -3 11 0 14 7 6 17 155 16 182 -1z m8
-179 c38 -29 51 -61 20 -48 -61 26 -179 26 -245 0 -27 -10 -22 8 10 37 35 33
45 36 118 37 52 1 66 -3 97 -26z m-355 -52 c12 -7 22 -18 22 -26 0 -7 5 -15
12 -17 8 -3 6 -7 -5 -11 -9 -3 -16 -3 -16 1 5 33 -2 40 -31 32 -27 -8 -29 -6
-26 13 2 12 -1 31 -6 42 -9 18 -8 18 9 -1 10 -12 28 -27 41 -33z m524 -1 c-10
-17 -9 -18 6 -14 14 5 15 4 2 -5 -11 -7 -19 -7 -29 3 -15 16 -6 40 11 30 8 -5
9 -1 4 12 -6 15 -5 17 6 6 10 -10 10 -17 0 -32z m509 26 c-23 -28 -116 -58
-220 -72 -162 -21 -301 -29 -301 -16 0 25 334 93 499 100 27 2 31 0 22 -12z
m157 -6 c70 -16 112 -51 112 -94 0 -18 -6 -40 -13 -50 -12 -17 -15 -17 -51 8
-44 30 -130 63 -186 72 -22 4 -40 10 -40 15 0 5 4 9 9 9 4 0 25 14 46 30 21
17 45 28 54 26 9 -2 40 -10 69 -16z m-1102 1 c-3 -4 6 -18 19 -31 13 -13 22
-28 18 -34 -3 -6 0 -5 8 2 16 15 33 16 23 0 -5 -7 -3 -8 6 -3 10 6 10 10 -2
19 -11 8 7 12 74 13 52 2 86 -1 83 -7 -6 -10 26 -30 47 -30 7 1 0 7 -17 15
-16 7 -24 14 -17 14 7 1 10 6 7 11 -3 6 -1 10 5 10 7 0 10 -7 6 -15 -3 -9 0
-15 10 -15 8 0 12 5 9 10 -3 6 1 10 10 10 10 0 14 -5 10 -12 -4 -7 2 -2 13 11
16 20 22 22 41 12 12 -7 26 -9 31 -6 6 4 7 -1 3 -11 -4 -12 -3 -15 5 -10 7 4
12 2 12 -3 0 -6 -8 -11 -17 -12 -15 0 -15 -2 2 -9 11 -5 16 -9 10 -10 -19 -2
29 -30 51 -30 34 0 39 -19 8 -30 -35 -14 -67 -4 -59 18 3 10 -8 3 -26 -15 -31
-31 -32 -32 -16 -57 10 -14 18 -40 18 -58 1 -32 2 -32 8 -6 5 21 9 25 21 18
11 -7 11 -10 2 -10 -7 0 -10 -5 -7 -10 4 -6 11 -8 16 -4 5 3 25 -8 45 -25 19
-17 39 -31 44 -31 6 0 10 -5 10 -11 0 -8 -6 -7 -17 2 -10 8 -14 9 -10 2 4 -6
3 -14 -3 -18 -13 -8 -13 -25 1 -25 5 0 7 5 4 10 -10 17 5 11 61 -21 30 -17 52
-35 49 -40 -4 -5 1 -9 9 -9 8 0 18 -9 21 -20 4 -11 11 -17 17 -14 7 4 8 2 4
-4 -4 -7 -17 -17 -28 -23 -18 -10 -20 -9 -14 6 5 13 2 16 -9 11 -9 -3 -13 -2
-10 3 7 13 -34 41 -50 34 -19 -7 -28 -34 -15 -47 5 -5 10 -20 10 -32 0 -12 7
-44 16 -72 13 -39 14 -54 5 -68 -11 -17 -11 -17 -6 3 8 30 -14 92 -42 120 -25
24 -48 21 -70 -6 -16 -21 -17 -44 0 -35 10 6 10 4 0 -7 -7 -7 -13 -26 -13 -42
l0 -30 -20 26 c-17 21 -25 24 -54 17 -18 -4 -39 -11 -45 -14 -6 -4 -60 -8
-119 -7 -174 0 -179 0 -162 12 11 7 5 9 -23 6 -39 -5 -71 -33 -59 -52 3 -5 -2
-4 -11 4 -11 8 -15 21 -12 32 4 10 1 28 -5 40 -16 30 1 45 31 28 33 -17 59
-21 179 -22 142 -2 276 15 265 33 -3 5 1 12 9 17 19 11 22 41 8 84 -13 36 -56
68 -67 49 -4 -6 -11 -10 -16 -10 -6 0 -8 3 -5 8 2 4 -14 5 -37 3 -37 -4 -39
-5 -17 -12 24 -7 -1 -9 -157 -13 -22 -1 -39 2 -37 5 2 4 -13 9 -34 12 -45 5
-92 -19 -92 -48 0 -17 -2 -18 -11 -5 -8 11 -9 8 -4 -13 3 -17 1 -35 -6 -44
-10 -11 -10 -13 1 -11 7 2 14 -2 16 -7 5 -13 -35 -14 -54 -1 -15 9 -57 -28
-48 -42 3 -5 -1 -9 -9 -9 -14 0 -14 52 0 88 3 9 -1 24 -10 33 -21 20 -31 20
-39 0 -3 -8 -10 -13 -15 -10 -5 4 -8 -5 -7 -19 2 -13 -1 -22 -5 -19 -5 3 -9
-3 -10 -13 0 -15 -2 -14 -9 3 -5 12 -13 25 -19 28 -6 4 9 25 34 49 25 23 45
47 45 53 0 6 8 18 18 25 16 13 16 12 3 -6 -8 -11 6 1 31 28 43 44 68 62 52 35
-4 -7 -3 -8 4 -4 6 4 8 14 5 23 -5 13 -2 15 11 10 10 -4 15 -3 11 3 -3 5 3 18
15 30 11 11 20 18 20 15 0 -3 6 0 13 6 20 19 16 64 -6 63 -9 -1 -15 2 -12 6
10 16 -15 21 -54 10 -32 -8 -39 -14 -34 -28 6 -15 5 -15 -11 -3 -16 13 -16 15
-1 23 8 5 12 14 9 20 -4 6 -3 8 3 5 5 -3 30 11 56 32 34 29 43 41 34 50 -19
19 8 38 29 20 16 -13 16 -12 6 7 -6 12 -8 24 -5 28 9 9 15 7 9 -3z m-431 -26
c90 -7 251 -31 308 -46 68 -18 40 -29 -75 -29 -168 1 -326 22 -376 50 -23 13
-42 28 -42 33 0 4 24 6 53 3 28 -3 88 -8 132 -11z m-208 -26 c40 -23 51 -34
41 -40 -7 -5 -21 -9 -31 -9 -25 0 -132 -46 -178 -77 -44 -29 -56 -25 -65 21
-12 66 34 102 175 135 2 1 28 -13 58 -30z m776 24 c-7 -2 -19 -2 -25 0 -7 3
-2 5 12 5 14 0 19 -2 13 -5z m767 -27 c0 -2 -7 -7 -16 -10 -8 -3 -12 -2 -9 4
6 10 25 14 25 6z m-74 -106 c44 -51 139 -133 167 -143 26 -9 -6 -21 -58 -21
-53 -1 -54 -1 -132 75 -43 42 -98 89 -122 105 l-45 29 60 11 c32 6 64 8 71 5
7 -4 33 -31 59 -61z m159 56 c85 -23 175 -71 175 -93 0 -21 -82 -83 -111 -83
-15 0 -51 16 -80 36 -54 36 -149 129 -149 145 0 14 109 10 165 -5z m-1462 -13
c-7 -2 -13 -10 -13 -17 0 -16 -103 -120 -155 -156 -55 -38 -75 -38 -131 1 -59
40 -57 64 11 101 62 35 141 59 220 68 77 9 83 9 68 3z m138 -13 c32 0 39 -16
10 -25 -18 -5 -117 -100 -177 -169 -29 -33 -35 -36 -87 -36 -31 0 -58 4 -61 9
-4 5 9 19 27 30 35 22 121 106 159 156 31 42 39 46 72 40 16 -3 41 -5 57 -5z
m936 -5 c42 -18 133 -84 178 -130 16 -16 33 -29 38 -27 5 1 5 -2 2 -8 -5 -8
-14 -6 -28 4 -37 26 -276 156 -287 156 -5 0 -10 5 -10 10 0 15 66 12 107 -5z
m-747 -5 c0 -5 -4 -10 -9 -10 -5 0 -68 -36 -141 -80 -73 -44 -135 -78 -138
-75 -18 18 161 155 217 166 54 10 71 10 71 -1z m643 -23 c4 3 7 1 7 -6 0 -8 7
-11 15 -7 8 3 15 1 15 -3 0 -20 -27 -16 -50 7 -14 14 -18 20 -9 14 9 -7 19 -9
22 -5z m-17 -45 c44 -26 97 -63 118 -82 48 -44 126 -147 126 -167 0 -23 -41 7
-195 142 -75 66 -140 122 -145 123 -15 5 -12 32 3 32 8 0 49 -21 93 -48z
m-547 -19 c-19 -15 -91 -83 -161 -151 -70 -68 -132 -121 -138 -117 -16 10 35
95 99 164 31 33 90 83 130 111 66 44 77 48 90 36 12 -13 10 -18 -20 -43z m-93
35 c4 -7 3 -8 -4 -4 -7 4 -12 1 -12 -8 0 -9 -4 -16 -10 -16 -12 0 -9 22 5 32
13 10 13 10 21 -4z m951 -135 c39 -18 83 -33 97 -33 26 0 56 -23 56 -44 0 -28
-41 -64 -86 -75 -61 -16 -80 -8 -105 42 -35 70 -101 148 -161 193 -31 23 -55
44 -52 47 3 2 44 -18 92 -46 48 -27 119 -65 159 -84z m-1063 38 c-46 -46 -83
-95 -110 -147 -44 -85 -39 -82 -126 -75 -9 0 -31 13 -48 27 -25 21 -30 33 -28
58 3 28 7 32 43 36 47 7 129 47 240 119 44 28 84 51 89 51 5 0 -22 -31 -60
-69z m-184 -51 c-8 -5 -19 -10 -25 -10 -5 0 -3 5 5 10 8 5 20 10 25 10 6 0 3
-5 -5 -10z m1011 -27 c13 -17 13 -17 -6 -3 -11 8 -22 16 -24 17 -2 2 0 3 6 3
6 0 17 -8 24 -17z m-174 -96 c7 -20 10 -43 7 -50 -11 -29 -178 -52 -308 -42
-114 8 -127 16 -117 70 l6 40 145 -3 c107 -3 157 0 190 11 25 8 50 14 55 13 6
-2 15 -19 22 -39z m260 -53 c-3 -3 -12 -4 -19 -1 -8 3 -5 6 6 6 11 1 17 -2 13
-5z m-818 -129 c0 -5 -4 -3 -9 5 -5 8 -9 22 -9 30 0 16 17 -16 18 -35z m548
-83 c-24 -23 -177 -36 -281 -22 -94 11 -125 30 -126 76 0 20 3 21 153 17 103
-3 170 0 207 9 l55 14 3 -40 c2 -24 -2 -44 -11 -54z m-558 43 c0 -20 0 -20 -9
0 -5 11 -9 27 -9 35 -1 13 0 13 9 0 5 -8 9 -24 9 -35z m758 -17 c-3 -7 -5 -2
-5 12 0 14 2 19 5 13 2 -7 2 -19 0 -25z m-154 2 c3 -11 1 -18 -4 -14 -5 3 -9
-11 -9 -30 0 -20 -4 -36 -10 -36 -5 0 -10 -7 -10 -15 0 -8 -4 -15 -9 -15 -6 0
-8 -8 -6 -18 2 -10 -6 -29 -16 -43 l-19 -24 9 27 c11 28 6 35 -37 57 -18 10
-27 10 -38 0 -9 -7 -51 -13 -105 -14 -52 -1 -85 1 -77 6 8 6 1 9 -22 8 -29 0
-31 -2 -15 -9 19 -8 19 -9 -3 -9 -16 -1 -22 -6 -20 -17 2 -10 -5 -18 -15 -19
-9 -2 -15 1 -12 5 3 5 1 11 -5 15 -5 3 -10 18 -9 33 0 15 3 21 6 14 4 -10 8
-10 17 3 12 17 17 17 184 11 67 -3 110 -1 107 5 -9 13 6 11 39 -6 16 -9 31
-13 34 -10 3 3 -1 5 -9 6 -8 0 -4 4 9 9 14 6 22 18 22 32 0 23 10 68 15 68 1
0 5 -9 8 -20z m-468 -30 c-3 -5 1 -10 9 -10 9 0 16 -4 16 -9 0 -5 10 -13 22
-17 l23 -7 -23 -8 c-16 -6 -28 -5 -36 4 -19 19 -30 57 -16 57 6 0 8 -4 5 -10z
m425 -30 c-8 -5 -19 -10 -25 -10 -5 0 -3 5 5 10 8 5 20 10 25 10 6 0 3 -5 -5
-10z m-400 -50 c0 -5 -2 -10 -4 -10 -3 0 -8 5 -11 10 -3 6 -1 10 4 10 6 0 11
-4 11 -10z m225 -46 c39 3 84 9 100 12 l30 7 -25 -28 c-57 -62 -131 -72 -211
-28 -27 14 -49 29 -49 33 0 15 13 17 48 8 20 -6 69 -8 107 -4z m-155 -28 c0
-11 -19 -15 -25 -6 -3 5 1 10 9 10 9 0 16 -2 16 -4z m270 -16 c-6 -11 -16 -20
-22 -20 -6 0 -3 9 7 20 10 11 20 20 22 20 2 0 -1 -9 -7 -20z m-245 -10 c-3 -5
-11 -10 -16 -10 -6 0 -7 5 -4 10 3 6 11 10 16 10 6 0 7 -4 4 -10z m38 -27 c-7
-2 -21 -2 -30 0 -10 3 -4 5 12 5 17 0 24 -2 18 -5z m47 -13 c0 -5 -2 -10 -4
-10 -3 0 -8 5 -11 10 -3 6 -1 10 4 10 6 0 11 -4 11 -10z m84 -9 c4 -5 -3 -7
-14 -4 -23 6 -26 13 -6 13 8 0 17 -4 20 -9z"/>
<path d="M1330 1834 c0 -3 7 -12 15 -20 16 -17 18 -14 9 10 -6 15 -24 23 -24
10z"/>
<path d="M1790 1741 c0 -4 11 -6 25 -3 14 2 25 6 25 8 0 2 -11 4 -25 4 -14 0
-25 -4 -25 -9z"/>
<path d="M1590 1620 c-8 -5 -64 -7 -124 -5 -61 2 -102 0 -92 -4 20 -7 19 -8 0
-13 -16 -4 -21 -14 -22 -47 -1 -24 3 -41 9 -41 6 0 9 -6 6 -12 -3 -9 8 -13 39
-13 24 0 44 -2 44 -6 0 -4 45 -5 101 -3 105 4 169 23 169 51 0 11 3 13 13 5 9
-8 12 -5 12 13 0 18 -3 21 -12 13 -10 -8 -13 -6 -13 8 -1 35 -26 55 -72 59
-25 2 -51 0 -58 -5z m105 -62 c4 -16 5 -32 2 -34 -9 -9 -223 -17 -270 -10 -37
6 -47 11 -47 26 0 44 4 45 160 47 l149 1 6 -30z"/>
<path d="M1410 1560 c0 -5 5 -10 11 -10 5 0 7 5 4 10 -3 6 -8 10 -11 10 -2 0
-4 -4 -4 -10z"/>
<path d="M1718 1493 c7 -3 16 -2 19 1 4 3 -2 6 -13 5 -11 0 -14 -3 -6 -6z"/>
<path d="M1270 1405 c0 -5 5 -17 10 -25 5 -8 10 -10 10 -5 0 6 -5 17 -10 25
-5 8 -10 11 -10 5z"/>
<path d="M2280 1746 c0 -2 11 -6 25 -8 13 -3 22 -1 19 3 -5 9 -44 13 -44 5z"/>
<path d="M813 1715 c0 -8 4 -12 9 -9 5 3 6 10 3 15 -9 13 -12 11 -12 -6z"/>
<path d="M594 1624 c-18 -14 -18 -15 4 -4 12 6 22 13 22 15 0 8 -5 6 -26 -11z"/>
<path d="M965 1711 c-3 -5 -2 -12 3 -15 5 -3 9 1 9 9 0 17 -3 19 -12 6z"/>
<path d="M859 1613 l-24 -28 28 24 c25 23 32 31 24 31 -2 0 -14 -12 -28 -27z"/>
<path d="M1940 1566 c0 -2 8 -10 18 -17 15 -13 16 -12 3 4 -13 16 -21 21 -21
13z"/>
<path d="M2135 1501 c-3 -5 -1 -12 5 -16 5 -3 10 1 10 9 0 18 -6 21 -15 7z"/>
<path d="M2250 1461 c0 -10 19 -25 25 -20 1 2 -3 10 -11 17 -8 7 -14 8 -14 3z"/>
<path d="M1658 1373 c6 -2 18 -2 25 0 6 3 1 5 -13 5 -14 0 -19 -2 -12 -5z"/>
<path d="M1594 1072 c3 -5 0 -13 -6 -15 -8 -3 -6 -6 5 -6 19 -1 23 14 5 25 -6
4 -8 3 -4 -4z"/>
<path d="M1528 1063 c7 -3 16 -2 19 1 4 3 -2 6 -13 5 -11 0 -14 -3 -6 -6z"/>
<path d="M1506 2192 c-13 -12 -5 -24 8 -13 11 9 15 9 18 0 3 -8 7 -7 15 2 9
11 6 14 -12 15 -13 1 -26 -1 -29 -4z"/>
<path d="M1364 2128 l-19 -23 23 19 c21 18 27 26 19 26 -2 0 -12 -10 -23 -22z"/>
<path d="M1765 2089 c-4 -6 -5 -12 -2 -15 2 -3 7 2 10 11 7 17 1 20 -8 4z"/>
<path d="M1320 2075 c-7 -9 -8 -15 -2 -15 5 0 12 7 16 15 3 8 4 15 2 15 -2 0
-9 -7 -16 -15z"/>
<path d="M1281 1994 c0 -11 3 -14 6 -6 3 7 2 16 -1 19 -3 4 -6 -2 -5 -13z"/>
<path d="M1141 1974 c0 -11 3 -14 6 -6 3 7 2 16 -1 19 -3 4 -6 -2 -5 -13z"/>
<path d="M1891 1983 c-1 -6 -4 -20 -7 -30 -5 -17 -5 -17 6 0 6 10 9 23 6 30
-3 9 -5 9 -5 0z"/>
<path d="M2468 1943 c7 -3 16 -2 19 1 4 3 -2 6 -13 5 -11 0 -14 -3 -6 -6z"/>
<path d="M705 1930 c27 -12 43 -12 25 0 -8 5 -22 9 -30 9 -10 0 -8 -3 5 -9z"/>
<path d="M1958 1933 c7 -3 16 -2 19 1 4 3 -2 6 -13 5 -11 0 -14 -3 -6 -6z"/>
<path d="M2518 1933 c7 -3 16 -2 19 1 4 3 -2 6 -13 5 -11 0 -14 -3 -6 -6z"/>
<path d="M2626 1847 c3 -10 9 -15 12 -12 3 3 0 11 -7 18 -10 9 -11 8 -5 -6z"/>
<path d="M411 1774 c0 -11 3 -14 6 -6 3 7 2 16 -1 19 -3 4 -6 -2 -5 -13z"/>
<path d="M421 1684 c0 -11 3 -14 6 -6 3 7 2 16 -1 19 -3 4 -6 -2 -5 -13z"/>
<path d="M2619 1679 c-8 -16 -8 -24 2 -33 9 -8 10 -8 5 1 -4 7 -2 22 4 33 6
11 8 20 6 20 -3 0 -10 -9 -17 -21z"/>
<path d="M2386 1447 c3 -10 9 -15 12 -12 3 3 0 11 -7 18 -10 9 -11 8 -5 -6z"/>
<path d="M2361 1424 c0 -11 3 -14 6 -6 3 7 2 16 -1 19 -3 4 -6 -2 -5 -13z"/>
<path d="M726 1355 c-9 -26 -7 -32 5 -12 6 10 9 21 6 23 -2 3 -7 -2 -11 -11z"/>
<path d="M2290 1356 c0 -2 7 -7 16 -10 8 -3 12 -2 9 4 -6 10 -25 14 -25 6z"/>
<path d="M1001 1254 c0 -11 3 -14 6 -6 3 7 2 16 -1 19 -3 4 -6 -2 -5 -13z"/>
<path d="M2016 1193 c-6 -14 -5 -15 5 -6 7 7 10 15 7 18 -3 3 -9 -2 -12 -12z"/>
<path d="M1851 1114 c0 -11 3 -14 6 -6 3 7 2 16 -1 19 -3 4 -6 -2 -5 -13z"/>
<path d="M1046 883 c-6 -14 -5 -15 5 -6 7 7 10 15 7 18 -3 3 -9 -2 -12 -12z"/>
<path d="M2066 853 c-6 -14 -5 -15 5 -6 7 7 10 15 7 18 -3 3 -9 -2 -12 -12z"/>
<path d="M1145 810 c-3 -5 -2 -10 4 -10 5 0 13 5 16 10 3 6 2 10 -4 10 -5 0
-13 -4 -16 -10z"/>
<path d="M1585 270 c-3 -6 1 -7 9 -4 18 7 21 14 7 14 -6 0 -13 -4 -16 -10z"/>
<path d="M1727 269 c7 -7 15 -10 18 -7 3 3 -2 9 -12 12 -14 6 -15 5 -6 -5z"/>
<path d="M1836 268 c3 -5 10 -6 15 -3 13 9 11 12 -6 12 -8 0 -12 -4 -9 -9z"/>
<path d="M1935 270 c3 -5 8 -10 11 -10 2 0 4 5 4 10 0 6 -5 10 -11 10 -5 0 -7
-4 -4 -10z"/>
<path d="M1426 238 c-13 -18 -16 -19 -16 -5 0 9 -4 17 -10 17 -12 0 -12 -2 0
-35 12 -31 24 -26 38 15 13 36 9 38 -12 8z"/>
<path d="M830 243 c0 -19 11 -43 21 -43 13 0 11 14 -6 36 -8 10 -15 14 -15 7z"/>
<path d="M860 237 c0 -7 6 -22 14 -33 14 -18 15 -18 25 9 13 34 13 37 2 37 -5
0 -12 -8 -14 -17 -4 -17 -5 -17 -6 0 -1 20 -21 24 -21 4z"/>
<path d="M920 235 c0 -28 16 -50 24 -36 4 6 0 21 -8 33 -15 21 -16 21 -16 3z"/>
<path d="M950 239 c0 -8 6 -24 14 -35 14 -18 15 -18 21 9 4 15 5 31 1 34 -3 4
-6 -2 -6 -12 0 -18 -1 -18 -15 1 -11 15 -14 16 -15 3z"/>
<path d="M1012 218 c10 -29 12 -30 25 -13 7 11 13 26 13 34 -1 13 -4 12 -15
-3 -13 -17 -15 -18 -15 -3 0 9 -4 17 -9 17 -6 0 -6 -13 1 -32z"/>
<path d="M1070 235 c0 -8 -4 -15 -10 -15 -5 0 -10 -7 -10 -15 0 -23 16 -18 28
10 15 32 15 35 2 35 -5 0 -10 -7 -10 -15z"/>
<path d="M1120 218 c0 -18 4 -28 8 -22 4 6 14 14 22 17 11 4 10 6 -4 6 -20 1
-20 1 0 16 19 14 18 14 -3 15 -19 0 -23 -5 -23 -32z"/>
<path d="M1168 220 c-3 -16 -1 -30 4 -30 4 0 8 5 8 12 0 9 3 9 12 0 19 -19 25
-14 20 18 -3 20 -10 30 -22 30 -12 0 -19 -10 -22 -30z m32 10 c0 -5 -5 -10
-11 -10 -5 0 -7 5 -4 10 3 6 8 10 11 10 2 0 4 -4 4 -10z"/>
<path d="M1232 223 c3 -26 38 -48 38 -24 0 6 -7 11 -16 11 -14 0 -14 1 0 16
21 20 20 24 -5 24 -16 0 -20 -5 -17 -27z"/>
<path d="M1289 248 c-9 -31 -6 -50 7 -55 8 -3 20 -1 27 6 8 8 6 11 -8 12 -11
0 -14 3 -7 6 17 7 15 33 -3 33 -8 0 -15 -1 -16 -2z"/>
<path d="M1345 239 c-4 -6 -5 -12 -2 -15 7 -7 37 7 37 17 0 13 -27 11 -35 -2z"/>
<path d="M1457 243 c-21 -21 9 -63 34 -47 15 9 10 24 -6 18 -8 -4 -15 -1 -15
5 0 6 7 11 15 11 8 0 15 5 15 10 0 11 -33 14 -43 3z"/>
<path d="M1517 242 c-12 -18 0 -47 19 -47 14 0 19 7 19 25 0 24 -27 40 -38 22z
m33 -22 c0 -5 -4 -10 -10 -10 -5 0 -10 5 -10 10 0 6 5 10 10 10 6 0 10 -4 10
-10z"/>
<path d="M1576 234 c-4 -10 -1 -24 7 -31 19 -19 49 -5 45 21 -4 27 -43 34 -52
10z m34 -14 c0 -5 -4 -10 -10 -10 -5 0 -10 5 -10 10 0 6 5 10 10 10 6 0 10 -4
10 -10z"/>
<path d="M1641 240 c0 -8 4 -24 9 -35 7 -19 8 -19 15 -2 7 16 8 16 20 1 11
-15 13 -14 23 14 7 19 7 32 1 32 -5 0 -9 -8 -9 -17 0 -15 -1 -15 -13 1 -13 18
-14 18 -21 0 -8 -18 -8 -18 -16 1 -5 12 -9 14 -9 5z"/>
<path d="M1731 219 c0 -28 2 -30 9 -14 7 18 8 19 15 3 4 -10 11 -15 16 -12 12
7 11 54 -1 54 -5 0 -10 -5 -10 -11 0 -8 -5 -8 -15 1 -13 11 -15 8 -14 -21z"/>
<path d="M1790 225 c0 -25 24 -44 38 -30 4 4 1 10 -5 12 -7 3 -13 13 -13 24 0
10 -4 19 -10 19 -5 0 -10 -11 -10 -25z"/>
<path d="M1844 236 c-9 -24 4 -48 23 -44 12 2 18 12 18 28 0 29 -32 41 -41 16z
m36 -16 c0 -5 -7 -10 -15 -10 -8 0 -15 5 -15 10 0 6 7 10 15 10 8 0 15 -4 15
-10z"/>
<path d="M1910 224 c-13 -33 -14 -32 15 -30 27 1 27 1 19 34 -8 29 -22 28 -34
-4z"/>
<path d="M1970 220 c0 -33 19 -40 40 -15 10 12 10 18 0 30 -21 25 -40 18 -40
-15z m30 0 c0 -5 -4 -10 -10 -10 -5 0 -10 5 -10 10 0 6 5 10 10 10 6 0 10 -4
10 -10z"/>
<path d="M2054 235 c-13 -33 24 -63 41 -35 5 8 11 7 21 -1 19 -16 44 -4 44 21
0 31 -29 37 -50 11 -11 -15 -24 -21 -36 -18 -18 4 -17 5 3 12 13 4 20 11 17
16 -8 14 -34 10 -40 -6z m96 -15 c0 -5 -7 -10 -15 -10 -8 0 -15 5 -15 10 0 6
7 10 15 10 8 0 15 -4 15 -10z"/>
<path d="M2180 250 c-7 -35 -7 -60 1 -60 5 0 9 4 9 8 0 5 7 9 15 9 8 0 15 -4
15 -9 0 -4 4 -8 9 -8 8 0 8 26 1 60 0 3 -7 -3 -14 -13 -14 -18 -15 -18 -25 0
-6 10 -11 16 -11 13z"/>
<path d="M1351 211 c-9 -6 -10 -11 -2 -15 13 -8 31 1 31 15 0 11 -11 11 -29 0z"/>
<path d="M1090 200 c0 -5 5 -10 10 -10 6 0 10 5 10 10 0 6 -4 10 -10 10 -5 0
-10 -4 -10 -10z"/>
<path d="M2020 200 c0 -5 5 -10 10 -10 6 0 10 5 10 10 0 6 -4 10 -10 10 -5 0
-10 -4 -10 -10z"/>
<path d="M1630 170 c8 -5 20 -10 25 -10 6 0 3 5 -5 10 -8 5 -19 10 -25 10 -5
0 -3 -5 5 -10z"/>
<path d="M1082 154 c-7 -8 -8 -14 -3 -14 10 0 25 19 20 25 -2 1 -10 -3 -17
-11z"/>
<path d="M990 150 c0 -5 5 -10 10 -10 6 0 10 5 10 10 0 6 -4 10 -10 10 -5 0
-10 -4 -10 -10z"/>
<path d="M1255 140 c-3 -5 -1 -10 4 -10 6 0 11 5 11 10 0 6 -2 10 -4 10 -3 0
-8 -4 -11 -10z"/>
<path d="M1380 146 c0 -2 7 -7 16 -10 8 -3 12 -2 9 4 -6 10 -25 14 -25 6z"/>
<path d="M1470 140 c0 -5 5 -10 10 -10 6 0 10 5 10 10 0 6 -4 10 -10 10 -5 0
-10 -4 -10 -10z"/>
<path d="M1891 147 c2 -1 13 -9 24 -17 19 -14 19 -14 6 3 -7 9 -18 17 -24 17
-6 0 -8 -1 -6 -3z"/>
<path d="M2040 139 c0 -5 5 -7 10 -4 6 3 10 8 10 11 0 2 -4 4 -10 4 -5 0 -10
-5 -10 -11z"/>
</g>
</svg>
