<?xml version="1.0" encoding="iso-8859-1"?>
<!-- Generator: Adobe Illustrator 19.0.0, SVG Export Plug-In . SVG Version: 6.00 Build 0)  -->
<svg version="1.1" id="Layer_1" xmlns="http://www.w3.org/2000/svg" xmlns:xlink="http://www.w3.org/1999/xlink" x="0px" y="0px"
	 viewBox="0 0 512 512" style="enable-background:new 0 0 512 512;" xml:space="preserve">
<g>
	<g>
		<path d="M511.806,79.437c0-3.16-1.695-6.082-4.44-7.645L383.974,1.171c-2.41-1.377-5.323-1.545-7.865-0.459L255.912,52.23
			L135.892,0.712c-2.542-1.086-5.455-0.918-7.857,0.45L4.449,71.783C1.695,73.355,0,76.277,0,79.446v141.241
			c0,3.169,1.695,6.1,4.449,7.671l119.137,68.078v136.112c0,3.169,1.695,6.1,4.449,7.671l123.586,70.621
			c1.351,0.768,2.869,1.156,4.378,1.156s3.028-0.388,4.378-1.156l123.586-70.621c2.754-1.58,4.449-4.511,4.449-7.68l-0.185-136.007
			l119.323-68.175c2.754-1.58,4.449-4.511,4.449-7.68L511.806,79.437z M282.571,97.101c0-4.873,3.946-8.828,8.828-8.828
			c4.873,0,8.828,3.955,8.828,8.828v44.138c0,4.882-3.955,8.828-8.828,8.828c-4.882,0-8.828-3.946-8.828-8.828V97.101z
			 M158.897,308.963c0-4.873,3.946-8.828,8.828-8.828s8.828,3.955,8.828,8.828v44.138c0,4.882-3.946,8.828-8.828,8.828
			s-8.828-3.946-8.828-8.828V308.963z M35.31,97.101c0-4.873,3.946-8.828,8.828-8.828s8.828,3.955,8.828,8.828v44.138
			c0,4.882-3.946,8.828-8.828,8.828s-8.828-3.946-8.828-8.828V97.101z M69.385,216.37c-1.651,2.781-4.582,4.317-7.601,4.317
			c-1.536,0-3.09-0.397-4.493-1.236l-3.416-2.004c-17.267-10.143-18.829-12.968-18.617-33.51l0.053-7.389
			c0-4.873,3.946-8.828,8.828-8.828s8.828,3.955,8.828,8.828l-0.053,7.574c-0.132,12.209-0.132,12.209,9.905,18.097l3.478,2.048
			C70.488,206.757,71.865,212.177,69.385,216.37z M139.979,260.544c-1.651,2.754-4.573,4.281-7.574,4.281
			c-1.545,0-3.116-0.406-4.537-1.253L83.73,237.089c-4.175-2.507-5.535-7.936-3.028-12.111c2.516-4.175,7.936-5.544,12.111-3.028
			l44.138,26.483C141.135,250.939,142.486,256.359,139.979,260.544z M192.971,428.232c-1.651,2.781-4.581,4.317-7.601,4.317
			c-1.536,0-3.09-0.397-4.493-1.236l-3.416-2.004c-17.267-10.143-18.829-12.968-18.617-33.51l0.053-7.389
			c0-4.873,3.946-8.828,8.828-8.828s8.828,3.955,8.828,8.828l-0.053,7.574c-0.132,12.209-0.132,12.209,9.905,18.097l3.478,2.048
			C194.074,418.619,195.452,424.039,192.971,428.232z M263.565,472.406c-1.651,2.754-4.573,4.281-7.574,4.281
			c-1.545,0-3.116-0.406-4.537-1.253l-44.138-26.483c-4.175-2.507-5.535-7.936-3.028-12.111c2.516-4.184,7.927-5.544,12.111-3.028
			l44.138,26.483C264.722,462.801,266.072,468.221,263.565,472.406z M316.646,216.37c-1.66,2.781-4.59,4.317-7.601,4.317
			c-1.536,0-3.09-0.397-4.493-1.236l-3.416-2.004c-17.267-10.143-18.838-12.968-18.617-33.51l0.053-7.389
			c0-4.873,3.946-8.828,8.828-8.828c4.873,0,8.828,3.955,8.828,8.828l-0.053,7.574c-0.132,12.209-0.132,12.209,9.905,18.097
			l3.469,2.048C317.749,206.757,319.126,212.177,316.646,216.37z M387.24,260.544c-1.651,2.754-4.581,4.281-7.574,4.281
			c-1.545,0-3.116-0.406-4.537-1.253l-44.138-26.483c-4.184-2.507-5.535-7.936-3.028-12.111c2.498-4.175,7.936-5.544,12.111-3.028
			l44.138,26.483C388.396,250.939,389.747,256.359,387.24,260.544z"/>
	</g>
</g>
<g>
</g>
<g>
</g>
<g>
</g>
<g>
</g>
<g>
</g>
<g>
</g>
<g>
</g>
<g>
</g>
<g>
</g>
<g>
</g>
<g>
</g>
<g>
</g>
<g>
</g>
<g>
</g>
<g>
</g>
</svg>
